<svg width="193" height="54" viewBox="0 0 193 54" fill="none" xmlns="http://www.w3.org/2000/svg">
<path d="M28.9131 0C12.9452 0 0 12.0513 0 26.9171C0 41.7835 12.9452 53.8338 28.9131 53.8338C44.8827 53.8338 57.8265 41.7835 57.8265 26.9171C57.8265 12.0523 44.8827 0.00128571 28.9127 0.00128571L28.9131 0ZM42.1724 38.8221C41.6545 39.6129 40.5428 39.8636 39.6934 39.3782C32.9049 35.5179 24.3591 34.6436 14.2948 36.7843C13.3249 36.99 12.3582 36.4243 12.1372 35.5211C11.9152 34.6179 12.5205 33.7179 13.4927 33.5121C24.5065 31.1696 33.9538 32.1782 41.5751 36.5143C42.4244 36.9996 42.6937 38.0314 42.1724 38.8221ZM45.7113 31.4929C45.0588 32.4804 43.6708 32.7921 42.6109 32.1846C34.8391 27.7374 22.9922 26.4494 13.7997 29.0472C12.6075 29.3824 11.3483 28.7569 10.9865 27.649C10.6274 26.5391 11.2997 25.3691 12.4898 25.0316C22.9901 22.0654 36.044 23.5022 44.969 28.6081C46.0289 29.2156 46.3638 30.5074 45.7113 31.4929ZM46.0151 23.8609C36.6966 18.7081 21.3222 18.2343 12.4252 20.7482C10.9965 21.1516 9.48566 20.4008 9.0527 19.0707C8.61975 17.74 9.42558 16.3344 10.8553 15.93C21.0684 13.0436 38.0465 13.6013 48.7751 19.5306C50.063 20.2407 50.4842 21.7858 49.7212 22.9805C48.9616 24.1769 47.2974 24.5713 46.0165 23.8609H46.0151ZM78.6629 24.8484C73.6704 23.7401 72.7831 22.9622 72.7831 21.3278C72.7831 19.7836 74.3437 18.7444 76.6673 18.7444C78.9184 18.7444 81.1487 19.5335 83.4896 21.158C83.5586 21.2072 83.6484 21.2268 83.7347 21.214C83.8245 21.2018 83.9005 21.1571 83.9522 21.0899L86.3898 17.891C86.4899 17.7593 86.4623 17.5776 86.3276 17.477C83.5414 15.3964 80.4064 14.3849 76.7398 14.3849C71.3503 14.3849 67.5835 17.3964 67.5835 21.7051C67.5835 26.3256 70.8324 27.9617 76.4463 29.2246C81.2212 30.249 82.0291 31.1072 82.0291 32.6411C82.0291 34.3414 80.3995 35.3989 77.7756 35.3989C74.8616 35.3989 72.4827 34.4829 69.8242 32.3421C69.7586 32.2875 69.6689 32.265 69.586 32.2682C69.4962 32.2746 69.4168 32.3132 69.3616 32.3743L66.6271 35.4021C66.5132 35.5307 66.527 35.7171 66.6582 35.8264C69.7517 38.3979 73.5565 39.7543 77.6651 39.7543C83.4723 39.7543 87.2253 36.8004 87.2253 32.2264C87.2357 28.367 84.7532 26.2295 78.6732 24.8525L78.6629 24.8484ZM100.366 20.2648C97.8489 20.2648 95.7843 21.1879 94.0787 23.0795V20.9504C94.0787 20.7823 93.9337 20.6454 93.7542 20.6454H89.2831C89.1035 20.6454 88.9585 20.7823 88.9585 20.9504V44.6079C88.9585 44.775 89.1035 44.9132 89.2831 44.9132H93.7542C93.9337 44.9132 94.0787 44.775 94.0787 44.6079V37.1411C95.7843 38.9186 97.8489 39.7896 100.366 39.7896C105.044 39.7896 109.781 36.4371 109.781 30.0282C109.788 23.6179 105.051 20.2645 100.369 20.2645L100.366 20.2648ZM104.581 30.0282C104.581 33.2904 102.424 35.5693 99.3301 35.5693C96.2746 35.5693 93.9682 33.1875 93.9682 30.0282C93.9682 26.8685 96.2746 24.4874 99.3301 24.4874C102.372 24.4871 104.581 26.8171 104.581 30.0282ZM121.917 20.2648C115.892 20.2648 111.172 24.5835 111.172 30.0979C111.172 35.5532 115.861 39.825 121.844 39.825C127.89 39.825 132.623 35.5211 132.623 30.0282C132.623 24.5539 127.921 20.2654 121.917 20.2654V20.2648ZM121.917 35.6014C118.713 35.6014 116.296 33.2036 116.296 30.0266C116.296 26.8351 118.63 24.5192 121.844 24.5192C125.069 24.5192 127.5 26.9161 127.5 30.0963C127.5 33.2871 125.152 35.6014 121.917 35.6014ZM145.488 20.6454H140.568V15.9634C140.568 15.7956 140.423 15.6587 140.243 15.6587H135.772C135.593 15.6587 135.444 15.7956 135.444 15.9634V20.6454H133.297C133.117 20.6454 132.972 20.7823 132.972 20.9504V24.5269C132.972 24.6947 133.117 24.832 133.297 24.832H135.444V34.0875C135.444 37.8257 137.443 39.7221 141.39 39.7221C142.992 39.7221 144.321 39.4136 145.574 38.7514C145.678 38.7 145.74 38.5971 145.74 38.4879V35.0807C145.74 34.9779 145.681 34.8782 145.585 34.8236C145.488 34.7657 145.367 34.7625 145.267 34.8107C144.407 35.2125 143.575 35.3989 142.643 35.3989C141.21 35.3989 140.568 34.7914 140.568 33.435V24.8336H145.488C145.667 24.8336 145.812 24.6966 145.812 24.5285V20.9523C145.819 20.7842 145.674 20.6473 145.491 20.6473L145.488 20.6454ZM162.626 20.6637V20.0886C162.626 18.397 163.324 17.6426 164.885 17.6426C165.817 17.6426 166.566 17.8149 167.405 18.0752C167.508 18.1054 167.615 18.0903 167.698 18.0328C167.785 17.9753 167.833 17.883 167.833 17.7853V14.2785C167.833 14.1445 167.743 14.0259 167.602 13.9863C166.718 13.7411 165.585 13.4894 163.887 13.4894C159.761 13.4894 157.575 15.6539 157.575 19.7466V20.6274H155.428C155.248 20.6274 155.1 20.7643 155.1 20.9321V24.5269C155.1 24.6947 155.248 24.832 155.428 24.832H157.575V39.105C157.575 39.2754 157.724 39.4104 157.903 39.4104H162.371C162.554 39.4104 162.699 39.2754 162.699 39.105V24.8329H166.873L173.267 39.105C172.542 40.6029 171.828 40.9018 170.854 40.9018C170.067 40.9018 169.235 40.6832 168.389 40.2493C168.309 40.2107 168.213 40.2043 168.13 40.2268C168.044 40.2557 167.971 40.3136 167.937 40.3907L166.421 43.4861C166.348 43.6339 166.411 43.8043 166.562 43.8814C168.144 44.6786 169.57 45.0193 171.334 45.0193C174.635 45.0193 176.461 43.5857 178.066 39.735L185.821 21.0803C185.862 20.9864 185.849 20.8803 185.786 20.7971C185.728 20.7145 185.628 20.6646 185.521 20.6646H180.867C180.725 20.6646 180.601 20.7473 180.556 20.8691L175.788 33.5443L170.567 20.8607C170.519 20.7428 170.398 20.6646 170.264 20.6646H162.626V20.6637ZM152.69 20.6454H148.219C148.039 20.6454 147.891 20.7823 147.891 20.9504V39.105C147.891 39.2754 148.039 39.4104 148.219 39.4104H152.69C152.869 39.4104 153.018 39.2754 153.018 39.105V20.9517C153.018 20.7836 152.873 20.6466 152.69 20.6466V20.6454ZM150.48 12.3785C148.709 12.3785 147.273 13.7131 147.273 15.3617C147.273 17.0113 148.709 18.3475 150.48 18.3475C152.251 18.3475 153.684 17.0113 153.684 15.3617C153.684 13.7134 152.248 12.3785 150.48 12.3785ZM189.64 26.4828C187.872 26.4828 186.494 25.1601 186.494 23.554C186.494 21.9478 187.889 20.61 189.657 20.61C191.425 20.61 192.802 21.9324 192.802 23.5373C192.802 25.1434 191.407 26.4828 189.64 26.4828ZM189.657 20.9012C188.044 20.9012 186.826 22.0937 186.826 23.554C186.826 25.0136 188.038 26.19 189.64 26.19C191.252 26.19 192.471 24.9985 192.471 23.5373C192.471 22.0776 191.259 20.9012 189.657 20.9012ZM190.354 23.8384L191.245 24.9981H190.492L189.691 23.9342H189.004V24.9981H188.376V21.924H189.847C190.617 21.924 191.121 22.2895 191.121 22.9047C191.124 23.4087 190.81 23.7166 190.358 23.8384H190.354ZM189.823 22.4515H189.004V23.4238H189.823C190.23 23.4238 190.475 23.2377 190.475 22.9371C190.475 22.6209 190.23 22.4515 189.823 22.4515Z" fill="#1ED760"/>
</svg>
